<?xml version="1.0" encoding="UTF-8" standalone="no"?>
<!-- Created with Inkscape (http://www.inkscape.org/) -->

<svg
   width="47.439373"
   height="42.048538"
   viewBox="0 0 12.551667 11.125342"
   version="1.1"
   id="svg5"
   xmlns="http://www.w3.org/2000/svg"
   xmlns:svg="http://www.w3.org/2000/svg">
  <defs
     id="defs2">
    <rect
       x="163.29897"
       y="316.3114"
       width="425.60596"
       height="371.60159"
       id="rect2586" />
  </defs>
  <g
     id="layer1"
     transform="translate(-0.07416615,-0.78732906)">
    <text
       xml:space="preserve"
       transform="scale(0.26458333)"
       id="text2584"
       style="font-weight:bold;font-size:53.3333px;line-height:1.25;font-family:Consolas;-inkscape-font-specification:'Consolas, Bold';letter-spacing:0px;word-spacing:0px;white-space:pre;shape-inside:url(#rect2586)" />
    <path
       style="color:#000000;-inkscape-font-specification:'Segoe UI Symbol, Normal';fill:#000000;stroke-width:0.260813;-inkscape-stroke:none"
       d="m 9.7188454,6.3635836 q 0,-0.047541 -0.0068,-0.095089 0,-0.047548 -0.013587,-0.1018802 0.4958186,0.2241374 0.9373006,0.5297784 0.441481,0.2988488 0.774292,0.7471227 0.332807,0.441482 0.529777,1.0595568 0.196969,0.618074 0.20376,1.4738701 0.01358,0.033961 0.01358,0.1018806 v 0.93051 q 0,0.183385 -0.07471,0.346394 -0.06792,0.163008 -0.190176,0.285265 -0.122258,0.129048 -0.285266,0.196969 -0.163008,0.07471 -0.353186,0.07471 H 1.4665317 q -0.1901768,0 -0.3599776,-0.07471 Q 0.93675342,11.770045 0.80770487,11.647784 0.67865636,11.525526 0.603944,11.362518 0.52923181,11.199509 0.52923181,11.009333 v -0.93051 q 0,-0.01359 0.006794,-0.01359 0.006794,-0.0068 0.006794,-0.02037 h -0.013585 q 0,-0.8761717 0.19696882,-1.5078298 Q 0.92317226,7.9053738 1.2559817,7.4570991 1.595583,7.0020337 2.0370648,6.6963929 2.4853387,6.3907519 2.9879487,6.1666145 l -0.020377,0.1969684 q 0,0.6995789 0.2648892,1.3176536 0.271681,0.6112827 0.7267469,1.0731409 0.4618579,0.455066 1.0731405,0.7199552 0.6180743,0.2648884 1.3108612,0.2648884 0.6927868,0 1.3040695,-0.2648884 Q 8.2653544,9.2094434 8.7204197,8.7543774 9.1822772,8.2925192 9.4471671,7.6812365 9.7188482,7.0631618 9.7188482,6.3635829 Z m -5.5830468,0 q 0,-0.4550653 0.1698006,-0.8557955 Q 4.482192,5.107058 4.7810411,4.8082092 5.0798904,4.5093596 5.48062,4.3395596 5.8813499,4.1629669 6.3432073,4.1629669 q 0.4550661,0 0.8625883,0.1765927 0.4075215,0.1698 0.7063711,0.4686496 0.2988488,0.2988488 0.4754408,0.6995789 0.1765929,0.4007302 0.1765929,0.8557955 0,0.4618589 -0.1765929,0.8625875 Q 8.2110155,7.6269013 7.9121667,7.9257508 7.6133171,8.2245998 7.2057956,8.4011925 6.7982734,8.5709932 6.3432073,8.5709932 5.8813499,8.5709932 5.48062,8.4011925 5.0798904,8.2245998 4.7810411,7.9257508 4.482192,7.6269013 4.3055992,7.2261711 4.1357986,6.8254425 4.1357986,6.3635836 Z M 12.625834,4.2648475 q 0,0.1494243 -0.05433,0.2784733 -0.05433,0.1290474 -0.156217,0.2309287 -0.09509,0.095088 -0.224137,0.1494236 -0.122257,0.054334 -0.264889,0.054334 H 9.3996224 Q 9.2026527,4.5433178 8.8970118,4.1765481 8.5913709,3.8097785 8.1906415,3.5516806 7.7967042,3.2867922 7.3280539,3.1441599 6.8594043,2.9947347 6.3432095,2.9947347 q -0.5094013,0 -0.9780518,0.1494252 Q 4.9032998,3.2867922 4.5093623,3.5516806 4.1154247,3.8097785 3.8029914,4.1765481 3.490558,4.5433178 3.2867973,4.9780069 H 0.7805368 q -0.1426326,0 -0.27168113,-0.054334 Q 0.37980715,4.8693394 0.27792675,4.7742495 0.18283835,4.6723682 0.1285021,4.5433208 0.07416615,4.4142718 0.07416615,4.2648475 V 4.0475021 q 0,-0.7607069 0.43468974,-1.3651975 Q 0.94354567,2.0710221 1.7653811,1.6567086 2.2951593,1.3782353 2.9336098,1.2016427 3.6399807,1.0046736 4.4821922,0.89600168 5.3311957,0.78732906 6.3432073,0.78732906 q 1.4806623,0 2.6420995,0.23092874 1.1682292,0.2309294 1.9764792,0.658827 0.808251,0.4211056 1.236149,1.0255961 0.427899,0.5976977 0.427899,1.3448212 z"
       id="path7198" />
  </g>
</svg>
